name Run_30002_GRF.mot
datacolumns 19
datarows 12
range 2.134 2.145
endheader
time	     ground_force_vx	     ground_force_vy	     ground_force_vz	     ground_force_px	     ground_force_py	     ground_force_pz	   l_ground_force_vx	   l_ground_force_vy	   l_ground_force_vz	   l_ground_force_px	   l_ground_force_py	   l_ground_force_pz	     ground_torque_x	     ground_torque_y	     ground_torque_z	   l_ground_torque_x	   l_ground_torque_y	   l_ground_torque_z	
2.134	        148.33105500	       1180.58129900	         44.45275100	          0.79286000	          0.00000000	         -0.34079400	          0.00000000	          0.00000000	          0.00000000	          0.00000000	          0.00000000	          0.00000000	          0.00000000	         -2.08005900	          0.00000000	          0.00000000	          0.00000000	          0.00000000	
2.135	        150.68293800	       1162.85754400	         44.96853300	          0.79055300	          0.00000000	         -0.34096900	          0.00000000	          0.00000000	          0.00000000	          0.00000000	          0.00000000	          0.00000000	          0.00000000	         -2.13254500	          0.00000000	          0.00000000	          0.00000000	          0.00000000	
2.136	        152.92710900	       1145.04211400	         45.46237600	          0.78824200	          0.00000000	         -0.34114200	          0.00000000	          0.00000000	          0.00000000	          0.00000000	          0.00000000	          0.00000000	          0.00000000	         -2.18115800	          0.00000000	          0.00000000	          0.00000000	          0.00000000	
2.137	        155.06738300	       1127.14526400	         45.93187300	          0.78592500	          0.00000000	         -0.34131500	          0.00000000	          0.00000000	          0.00000000	          0.00000000	          0.00000000	          0.00000000	          0.00000000	         -2.22569100	          0.00000000	          0.00000000	          0.00000000	          0.00000000	
2.138	        157.10672000	       1109.17736800	         46.37469500	          0.78360300	          0.00000000	         -0.34148700	          0.00000000	          0.00000000	          0.00000000	          0.00000000	          0.00000000	          0.00000000	          0.00000000	         -2.26595100	          0.00000000	          0.00000000	          0.00000000	          0.00000000	
2.139	        159.04711900	       1091.14819300	         46.78863500	          0.78127400	          0.00000000	         -0.34165700	          0.00000000	          0.00000000	          0.00000000	          0.00000000	          0.00000000	          0.00000000	          0.00000000	         -2.30176200	          0.00000000	          0.00000000	          0.00000000	          0.00000000	
2.14	        160.88960300	       1073.06762700	         47.17164600	          0.77893800	          0.00000000	         -0.34182600	          0.00000000	          0.00000000	          0.00000000	          0.00000000	          0.00000000	          0.00000000	          0.00000000	         -2.33296100	          0.00000000	          0.00000000	          0.00000000	          0.00000000	
2.141	        162.63420100	       1054.94506800	         47.52185800	          0.77659500	          0.00000000	         -0.34199300	          0.00000000	          0.00000000	          0.00000000	          0.00000000	          0.00000000	          0.00000000	          0.00000000	         -2.35940300	          0.00000000	          0.00000000	          0.00000000	          0.00000000	
2.142	        164.27998400	       1036.78979500	         47.83761200	          0.77424400	          0.00000000	         -0.34215700	          0.00000000	          0.00000000	          0.00000000	          0.00000000	          0.00000000	          0.00000000	          0.00000000	         -2.38095800	          0.00000000	          0.00000000	          0.00000000	          0.00000000	
2.143	        165.82510400	       1018.61114500	         48.11748900	          0.77188700	          0.00000000	         -0.34232000	          0.00000000	          0.00000000	          0.00000000	          0.00000000	          0.00000000	          0.00000000	          0.00000000	         -2.39751200	          0.00000000	          0.00000000	          0.00000000	          0.00000000	
2.144	        167.26689100	       1000.41803000	         48.36032100	          0.76952300	          0.00000000	         -0.34248000	          0.00000000	          0.00000000	          0.00000000	          0.00000000	          0.00000000	          0.00000000	          0.00000000	         -2.40897100	          0.00000000	          0.00000000	          0.00000000	          0.00000000	
2.145	        168.60191300	        982.21942100	         48.56520500	          0.76715400	          0.00000000	         -0.34263800	          0.00000000	          0.00000000	          0.00000000	          0.00000000	          0.00000000	          0.00000000	          0.00000000	         -2.41525600	          0.00000000	          0.00000000	          0.00000000	          0.00000000	
